<?xml version="1.0" encoding="UTF-8"?>
<svg version="1.1" xmlns="http://www.w3.org/2000/svg" width="512" height="512">
<path d="M0 0 C1.47893486 -0.01029488 1.47893486 -0.01029488 2.98774719 -0.02079773 C6.24336187 -0.03908255 9.49849543 -0.03522571 12.75415039 -0.02954102 C15.01949724 -0.03410201 17.28484271 -0.03940733 19.55018616 -0.04542542 C24.29718651 -0.05435985 29.04401865 -0.05192951 33.79101562 -0.04199219 C39.87194057 -0.03050244 45.95228485 -0.05071291 52.03313351 -0.07990932 C56.71118351 -0.09826213 61.38909413 -0.09798065 66.0671711 -0.0922718 C68.30904518 -0.09211848 70.55092864 -0.09817221 72.79276848 -0.11056328 C75.92862164 -0.12545354 79.06339907 -0.11480987 82.19921875 -0.09765625 C83.1235672 -0.10732422 84.04791565 -0.11699219 85.00027466 -0.12695312 C90.54603343 -0.06348296 93.78342407 0.66825467 98.16430664 4.40405273 C99.85180664 6.77905273 99.85180664 6.77905273 101.16430664 9.40405273 C101.65930664 10.3747168 102.15430664 11.34538086 102.66430664 12.34545898 C103.15930664 13.35479492 103.65430664 14.36413086 104.16430664 15.40405273 C104.65930664 16.38245117 105.15430664 17.36084961 105.66430664 18.36889648 C107.18017856 21.37300723 108.67192514 24.38819845 110.16430664 27.40405273 C111.1987941 29.4754318 112.23401167 31.54644632 113.26977539 33.6171875 C113.81142334 34.70016617 114.35307129 35.78314484 114.91113281 36.89894104 C115.32468018 37.7256279 115.73822754 38.55231476 116.16430664 39.40405273 C116.80814615 39.40551929 117.45198566 39.40698586 118.11533546 39.40849686 C133.78987595 39.44556747 149.4641575 39.5045853 165.13851357 39.58795547 C172.71856664 39.62774507 180.2985159 39.6601379 187.87866211 39.67504883 C194.48643486 39.68806584 201.09397921 39.71503148 207.70162332 39.7586658 C211.19956293 39.78127988 214.69722083 39.79696347 218.19524002 39.79593658 C222.10264462 39.7950511 226.00947426 39.82531052 229.91674805 39.8581543 C231.65168015 39.85060875 231.65168015 39.85060875 233.42166138 39.84291077 C239.44786053 39.92138223 243.56237544 40.07505407 248.16430664 44.40405273 C251.29682699 48.31149426 251.50126584 51.2843991 251.35180664 56.21655273 C251.32473633 57.37799805 251.29766602 58.53944336 251.26977539 59.73608398 C251.21756836 61.05672852 251.21756836 61.05672852 251.16430664 62.40405273 C251.91519562 62.39517029 252.66608459 62.38628784 253.43972778 62.37713623 C260.53098583 62.29684545 267.62208529 62.23601513 274.71367073 62.19680405 C278.35919784 62.17596702 282.004348 62.1477219 285.6496582 62.10229492 C289.17045651 62.0586963 292.69089325 62.03488642 296.21194077 62.02454376 C298.20278611 62.01360268 300.19348686 61.98239874 302.18411255 61.9508667 C313.65217807 61.94802861 313.65217807 61.94802861 318.16430664 66.40405273 C321.59828842 70.95210439 322.08728715 75.59269348 322.86132812 81.08496094 C323.08832618 82.58646352 323.08832618 82.58646352 323.31991005 84.11829948 C323.65634797 86.3437735 323.98833565 88.56992347 324.316576 90.79662132 C325.26905348 97.2424676 326.25944121 103.68243214 327.25756836 110.12133789 C327.3671524 110.829819 327.47673644 111.53830011 327.58964121 112.26825035 C329.50088306 124.58395838 331.61553121 136.85853358 333.80151367 149.12817383 C338.09651722 173.2573496 342.24930711 197.40787845 346.22680664 221.59155273 C346.40417122 222.66912858 346.58153581 223.74670442 346.76427507 224.85693407 C357.94319151 292.9413497 364.07006564 359.57796903 363.35180664 428.59155273 C363.33378904 430.510944 363.31581032 432.43033563 363.29787064 434.34972763 C363.17439426 446.8429704 362.95417388 459.33204565 362.64477539 471.82202148 C362.62587895 472.62669672 362.60698251 473.43137196 362.58751345 474.26043129 C362.47945478 478.80232905 362.34963648 483.34252309 362.18282115 487.88265955 C362.11277192 489.8712319 362.0593835 491.86036958 362.00659275 493.84947491 C361.53742276 504.85118747 361.53742276 504.85118747 357.16430664 509.40405273 C352.96588277 512.58386035 349.29065194 512.83062019 344.19442844 512.78436947 C343.39354442 512.78902939 342.5926604 512.79368931 341.76750717 512.79849043 C339.07299394 512.81047974 336.3789813 512.80102991 333.6844635 512.79173279 C331.73751548 512.79590398 329.79056988 512.80138031 327.84362882 512.8080526 C322.48491823 512.82255404 317.12636082 512.81824783 311.76764166 512.81088579 C305.9918132 512.80616803 300.21601854 512.81865159 294.44020081 512.8289032 C283.12167481 512.84612378 271.80320426 512.84692447 260.48466856 512.84169029 C251.28765475 512.8376535 242.09065736 512.8390863 232.89364433 512.84443855 C231.58608361 512.84518697 230.2785229 512.8459354 228.93133913 512.8467065 C226.27527718 512.84823793 223.61921523 512.84977628 220.9631533 512.85132147 C203.12245029 512.8613832 185.28175315 512.86530949 167.44104862 512.85769558 C166.39430564 512.85724982 166.39430564 512.85724982 165.32641634 512.85679505 C159.65932035 512.85434604 153.99222444 512.8517345 148.32512853 512.84911092 C126.21753731 512.83900767 104.11002203 512.84736445 82.00244141 512.87060547 C57.1712972 512.89666738 32.34019917 512.90947937 7.50904077 512.90241772 C-5.64121804 512.89891981 -18.79141448 512.90119524 -31.94166374 512.91866875 C-43.13594283 512.93335837 -54.33011561 512.93406863 -65.52439254 512.91659784 C-71.23851408 512.90805883 -76.95244546 512.90600889 -82.66655731 512.92124939 C-87.89424157 512.93502019 -93.12157141 512.93043179 -98.34923477 512.91101015 C-100.24352571 512.90722637 -102.13784453 512.91023998 -104.0321108 512.9206218 C-106.60182948 512.93370748 -109.17030954 512.92228433 -111.73997402 512.90462399 C-112.48003375 512.9142745 -113.22009348 512.92392501 -113.98257926 512.93386796 C-119.05566586 512.8619978 -121.92169089 511.58337123 -125.83569336 508.40405273 C-128.50035364 504.91227065 -129.23968301 502.24782119 -129.45889282 497.89953613 C-129.51947687 496.79480989 -129.58006092 495.69008364 -129.64248085 494.55188084 C-129.71806001 492.73363757 -129.71806001 492.73363757 -129.79516602 490.87866211 C-129.85736013 489.58194297 -129.91955425 488.28522383 -129.98363304 486.94921017 C-130.82964289 468.61214537 -131.19219004 450.25716937 -131.46069336 431.90405273 C-131.48251379 430.52125256 -131.48251379 430.52125256 -131.50477505 429.11051702 C-132.74266881 349.68232541 -122.44755706 272.79201134 -109.80984676 194.6264472 C-109.45981229 192.46110238 -109.11032267 190.29567017 -108.76092625 188.13022232 C-103.88834797 157.94609336 -98.87321474 127.78648303 -93.64282227 97.66210938 C-93.46098176 96.60921062 -93.27914126 95.55631186 -93.09179044 94.47150707 C-92.58439166 91.54018142 -92.07162318 88.60985332 -91.55679321 85.67982483 C-91.41087109 84.83451613 -91.26494896 83.98920744 -91.11460495 83.11828333 C-88.67867063 69.39196016 -88.67867063 69.39196016 -82.83569336 64.40405273 C-79.34906613 62.07963458 -78.00991413 62.16003533 -73.89550781 62.17700195 C-72.0639489 62.17722855 -72.0639489 62.17722855 -70.19538879 62.17745972 C-68.21716377 62.19294357 -68.21716377 62.19294357 -66.19897461 62.20874023 C-64.83562935 62.21247112 -63.4722814 62.21531774 -62.1089325 62.21731567 C-58.52335182 62.2249462 -54.93793357 62.24458958 -51.35241699 62.26672363 C-47.69256792 62.28719463 -44.03269257 62.29632006 -40.37280273 62.30639648 C-33.19369229 62.32783613 -26.0147156 62.36196494 -18.83569336 62.40405273 C-18.84457581 61.75338837 -18.85345825 61.102724 -18.86260986 60.43234253 C-18.9512017 53.65151771 -19.01147709 46.87085769 -19.05541992 40.08959961 C-19.07551741 37.55990927 -19.10280004 35.03026527 -19.13745117 32.50073242 C-19.18604892 28.86161856 -19.20868148 25.22311973 -19.22631836 21.58374023 C-19.25728607 19.89122635 -19.25728607 19.89122635 -19.28887939 18.16452026 C-19.290603 12.11355687 -19.19346343 8.02500012 -14.83569336 3.40405273 C-10.17370765 -0.33419869 -5.70761751 -0.0277358 0 0 Z " fill="#82D0FE" transform="translate(139.835693359375,-0.404052734375)"/>
<path d="M0 0 C1.47893486 -0.01029488 1.47893486 -0.01029488 2.98774719 -0.02079773 C6.24336187 -0.03908255 9.49849543 -0.03522571 12.75415039 -0.02954102 C15.01949724 -0.03410201 17.28484271 -0.03940733 19.55018616 -0.04542542 C24.29718651 -0.05435985 29.04401865 -0.05192951 33.79101562 -0.04199219 C39.87194057 -0.03050244 45.95228485 -0.05071291 52.03313351 -0.07990932 C56.71118351 -0.09826213 61.38909413 -0.09798065 66.0671711 -0.0922718 C68.30904518 -0.09211848 70.55092864 -0.09817221 72.79276848 -0.11056328 C75.92862164 -0.12545354 79.06339907 -0.11480987 82.19921875 -0.09765625 C83.1235672 -0.10732422 84.04791565 -0.11699219 85.00027466 -0.12695312 C90.54603343 -0.06348296 93.78342407 0.66825467 98.16430664 4.40405273 C99.85180664 6.77905273 99.85180664 6.77905273 101.16430664 9.40405273 C101.65930664 10.3747168 102.15430664 11.34538086 102.66430664 12.34545898 C103.15930664 13.35479492 103.65430664 14.36413086 104.16430664 15.40405273 C104.65930664 16.38245117 105.15430664 17.36084961 105.66430664 18.36889648 C107.18017856 21.37300723 108.67192514 24.38819845 110.16430664 27.40405273 C111.1987941 29.4754318 112.23401167 31.54644632 113.26977539 33.6171875 C113.81142334 34.70016617 114.35307129 35.78314484 114.91113281 36.89894104 C115.32468018 37.7256279 115.73822754 38.55231476 116.16430664 39.40405273 C116.80814615 39.40551929 117.45198566 39.40698586 118.11533546 39.40849686 C133.78987595 39.44556747 149.4641575 39.5045853 165.13851357 39.58795547 C172.71856664 39.62774507 180.2985159 39.6601379 187.87866211 39.67504883 C194.48643486 39.68806584 201.09397921 39.71503148 207.70162332 39.7586658 C211.19956293 39.78127988 214.69722083 39.79696347 218.19524002 39.79593658 C222.10264462 39.7950511 226.00947426 39.82531052 229.91674805 39.8581543 C231.65168015 39.85060875 231.65168015 39.85060875 233.42166138 39.84291077 C239.44786053 39.92138223 243.56237544 40.07505407 248.16430664 44.40405273 C251.86661831 48.75994119 251.57383353 53.06448308 251.50488281 58.50878906 C251.50532089 59.41660126 251.50575897 60.32441345 251.50621033 61.25973511 C251.50412493 64.25207228 251.48080543 67.24384502 251.45727539 70.23608398 C251.45167856 72.31401768 251.44740887 74.39195534 251.44441223 76.46989441 C251.43297039 81.93292209 251.4035087 87.39570963 251.37030029 92.85864258 C251.33958529 98.43559521 251.32590382 104.01258673 251.31079102 109.58959961 C251.27863853 120.52785603 251.22744999 131.46593439 251.16430664 142.40405273 C251.77556396 142.39027588 252.38682129 142.37649902 253.01660156 142.36230469 C253.82202393 142.35158936 254.62744629 142.34087402 255.45727539 142.32983398 C256.25415771 142.31605713 257.05104004 142.30228027 257.87207031 142.28808594 C261.25219238 142.45909009 263.3798737 143.52617935 266.16430664 145.40405273 C270.90385596 150.65598577 271.30752649 154.00146155 271.27783203 160.89282227 C271.27797806 161.77093567 271.27812408 162.64904907 271.27827454 163.55377197 C271.27757622 166.46482793 271.26978759 169.37582041 271.26196289 172.28686523 C271.26009842 174.30182866 271.25867466 176.31679255 271.25767517 178.33175659 C271.25385226 183.64183803 271.24402388 188.95189223 271.23297119 194.26196289 C271.22275223 199.67781201 271.21817651 205.09366551 271.21313477 210.50952148 C271.20240143 221.14104389 271.1853277 231.77254605 271.16430664 242.40405273 C271.77556396 242.39027588 272.38682129 242.37649902 273.01660156 242.36230469 C273.82202393 242.35158936 274.62744629 242.34087402 275.45727539 242.32983398 C276.25415771 242.31605713 277.05104004 242.30228027 277.87207031 242.28808594 C281.25219238 242.45909009 283.3798737 243.52617935 286.16430664 245.40405273 C290.78361233 250.52274282 291.30848794 253.71800464 291.27783203 260.43383789 C291.27797806 261.26318344 291.27812408 262.09252899 291.27827454 262.94700623 C291.27757635 265.69573559 291.26978835 268.44439767 291.26196289 271.19311523 C291.26009838 273.09597741 291.25867463 274.99884006 291.25767517 276.90170288 C291.25385263 281.91586629 291.24402457 286.93000084 291.23297119 291.94415283 C291.22275143 297.05838633 291.21817634 302.17262448 291.21313477 307.28686523 C291.20240209 317.32594043 291.1853288 327.36499418 291.16430664 337.40405273 C290.56685072 337.40551929 289.9693948 337.40698586 289.35383415 337.40849686 C274.80591081 337.44557374 260.25819055 337.5046001 245.71046257 337.58795547 C238.67521668 337.62773848 231.64008252 337.66013463 224.60473633 337.67504883 C217.81594159 337.68946122 211.02750569 337.7245808 204.2388649 337.77236176 C201.64814386 337.7872055 199.05737338 337.79509545 196.46660995 337.79593658 C192.83926163 337.79829885 189.21287603 337.82532137 185.58569336 337.8581543 C183.97699623 337.85060875 183.97699623 337.85060875 182.33580017 337.84291077 C176.29992029 337.92750402 172.7698206 338.38858313 168.16430664 342.40405273 C163.37366982 348.0101171 160.31648818 356.09968965 157.16430664 362.40405273 C130.10430664 362.40405273 103.04430664 362.40405273 75.16430664 362.40405273 C71.86430664 356.13405273 68.56430664 349.86405273 65.16430664 343.40405273 C59.74860335 338.87521762 59.74860335 338.87521762 53.48202515 338.24583435 C52.49481979 338.23604553 51.50761444 338.22625671 50.49049377 338.21617126 C49.40364792 338.2104158 48.31680206 338.20466034 47.19702148 338.19873047 C45.48483177 338.18388107 45.48483177 338.18388107 43.73805237 338.16873169 C39.950471 338.13704608 36.16287708 338.11233135 32.37524414 338.08764648 C29.75493028 338.06708306 27.13461979 338.04608675 24.51431274 338.02467346 C18.31306897 337.97472919 12.11179934 337.92979682 5.91050494 337.8866511 C-1.14868815 337.83729352 -8.20783446 337.78236992 -15.26698232 337.72697151 C-29.78984172 337.61312486 -44.31274767 337.50629166 -58.83569336 337.40405273 C-58.92922138 321.35739482 -58.99971389 305.31082562 -59.04294205 289.26396084 C-59.06354902 281.8127626 -59.09163366 274.36173392 -59.13745117 266.91064453 C-59.1773764 260.41468139 -59.20313974 253.91884107 -59.21204734 247.42275864 C-59.21725256 243.98450356 -59.22944703 240.54659981 -59.25861359 237.10845757 C-59.29094355 233.26608677 -59.29164912 229.42405665 -59.28979492 225.58154297 C-59.30417603 224.44721832 -59.31855713 223.31289368 -59.33337402 222.14419556 C-59.29956598 215.67004812 -58.76323078 211.63498111 -54.83569336 206.40405273 C-51.14809527 203.18471437 -47.96499973 202.1948569 -43.09741211 202.30639648 C-42.29650146 202.32049561 -41.49559082 202.33459473 -40.67041016 202.34912109 C-39.76222534 202.37631226 -39.76222534 202.37631226 -38.83569336 202.40405273 C-38.84457581 201.30459824 -38.85345825 200.20514374 -38.86260986 199.07237244 C-38.94377539 188.69972895 -39.00369709 178.32715009 -39.04294205 167.95426083 C-39.06379676 162.62171609 -39.09207603 157.28942819 -39.13745117 151.95703125 C-39.18098398 146.80879258 -39.20484638 141.6608006 -39.21520233 136.51239204 C-39.22258032 134.55042196 -39.2369879 132.58846503 -39.25861359 130.62660027 C-39.28774633 127.87365657 -39.29164523 125.12172595 -39.28979492 122.36865234 C-39.30417603 121.56160355 -39.31855713 120.75455475 -39.33337402 119.92304993 C-39.29255755 114.29284289 -38.08454894 111.03159613 -34.83569336 106.40405273 C-31.16899581 103.17209984 -27.95064965 102.19518572 -23.09741211 102.30639648 C-22.29650146 102.32049561 -21.49559082 102.33459473 -20.67041016 102.34912109 C-19.76222534 102.37631226 -19.76222534 102.37631226 -18.83569336 102.40405273 C-18.84457581 101.25226532 -18.85345825 100.10047791 -18.86260986 98.91378784 C-18.94372374 88.05519714 -19.00367235 77.19666796 -19.04294205 66.33784294 C-19.0638098 60.75529216 -19.09211305 55.17298611 -19.13745117 49.59057617 C-19.18093724 44.20244061 -19.20483658 38.81454034 -19.21520233 33.42624283 C-19.22258869 31.37134218 -19.23701255 29.31645429 -19.25861359 27.2616539 C-19.28768392 24.3815918 -19.2916478 21.50249985 -19.28979492 18.62231445 C-19.30417603 17.77426743 -19.31855713 16.9262204 -19.33337402 16.05247498 C-19.29621237 10.70824063 -18.48454578 7.57566715 -14.83569336 3.40405273 C-10.37933812 -0.45641064 -5.6061565 -0.02724275 0 0 Z " fill="#FE736E" transform="translate(139.835693359375,-0.404052734375)"/>
<path d="M0 0 C9.94125 -0.0825 19.8825 -0.165 30.125 -0.25 C33.25500488 -0.28641602 36.38500977 -0.32283203 39.60986328 -0.36035156 C42.09667271 -0.37203636 44.58348979 -0.38222868 47.0703125 -0.390625 C48.35671631 -0.41108887 49.64312012 -0.43155273 50.96850586 -0.45263672 C62.48674641 -0.45713515 62.48674641 -0.45713515 67 4 C70.43398178 8.54805166 70.92298051 13.18864074 71.69702148 18.6809082 C71.84835352 19.68190992 71.99968555 20.68291164 72.15560341 21.71424675 C72.49204133 23.93972076 72.82402901 26.16587073 73.15226936 28.39256859 C74.10474684 34.83841486 75.09513457 41.27837941 76.09326172 47.71728516 C76.20284576 48.42576627 76.3124298 49.13424738 76.42533457 49.86419761 C78.33657641 62.17990565 80.45122457 74.45448084 82.63720703 86.72412109 C86.93221058 110.85329686 91.08500047 135.00382572 95.0625 159.1875 C95.23986458 160.26507584 95.41722917 161.34265168 95.59996843 162.45288134 C106.77888487 230.53729696 112.905759 297.17391629 112.1875 366.1875 C112.1694824 368.10689127 112.15150368 370.0262829 112.133564 371.9456749 C112.01008762 384.43891767 111.78986724 396.92799291 111.48046875 409.41796875 C111.46157231 410.22264399 111.44267587 411.02731922 111.42320681 411.85637856 C111.31514814 416.39827632 111.18532984 420.93847036 111.01851451 425.47860682 C110.94846528 427.46717917 110.89507686 429.45631684 110.84228611 431.44542217 C110.37311612 442.44713473 110.37311612 442.44713473 106 447 C101.36963865 450.68037119 97.09132568 450.41541751 91.43925476 450.36076355 C89.98726904 450.36460846 89.98726904 450.36460846 88.50595027 450.36853105 C85.25990133 450.37347547 82.0143167 450.35696482 78.76831055 450.34057617 C76.44247956 450.33973004 74.11664778 450.34020476 71.79081726 450.34190369 C65.47306302 450.34276562 59.15547911 450.32510766 52.8377645 450.30418181 C46.90535976 450.28734566 40.97296167 450.2843132 35.04053626 450.2812262 C23.29123355 450.27466244 11.54199337 450.25470336 -0.20727539 450.22631836 C-11.61970711 450.19877581 -23.03212183 450.17754319 -34.44458008 450.16479492 C-35.14819742 450.16400675 -35.85181476 450.16321858 -36.57675383 450.16240653 C-40.10664137 450.15849138 -43.63652903 450.15470026 -47.16641676 450.15097082 C-76.44432553 450.11987728 -105.72214365 450.06457547 -135 450 C-135 430.2 -135 410.4 -135 390 C-108.375 389.6875 -108.375 389.6875 -99.99755859 389.61206055 C-97.79783435 389.57976508 -95.59812557 389.54639058 -93.3984375 389.51171875 C-91.69554565 389.50235291 -91.69554565 389.50235291 -89.95825195 389.49279785 C-82.06562984 389.34941969 -82.06562984 389.34941969 -75 386 C-71.20024379 381.80716556 -70.64248609 377.76345063 -70.72265625 372.28515625 C-71.16232225 368.66255607 -72.58208359 366.67243392 -75 364 C-80.72214136 360.06536566 -86.71422734 360.52504417 -93.3984375 360.48828125 C-94.98168823 360.46332581 -94.98168823 360.46332581 -96.59692383 360.43786621 C-100.52274853 360.38022882 -104.4489114 360.34785471 -108.375 360.3125 C-117.16125 360.209375 -125.9475 360.10625 -135 360 C-135 340.2 -135 320.4 -135 300 C-121.47 300 -107.94 300 -94 300 C-93.34 298.02 -92.68 296.04 -92 294 C-85.0172144 279.0086072 -85.0172144 279.0086072 -77 275 C-75.44146715 274.90750422 -73.87899277 274.87807388 -72.31771851 274.87974548 C-71.33051315 274.87837082 -70.3433078 274.87699615 -69.32618713 274.87557983 C-68.23934128 274.87917511 -67.15249542 274.88277039 -66.03271484 274.88647461 C-64.89125504 274.88632858 -63.74979523 274.88618256 -62.57374573 274.8860321 C-58.78612391 274.88673094 -54.99855077 274.89452202 -51.2109375 274.90234375 C-48.59062731 274.90420803 -45.97031677 274.90563189 -43.3500061 274.90663147 C-37.14872839 274.90974248 -30.94746826 274.91795278 -24.7461983 274.92798096 C-17.68703837 274.93914922 -10.62787761 274.94465435 -3.56871104 274.94967639 C10.95420172 274.96013557 25.47710061 274.97773058 40 275 C39.96193655 264.02079752 39.90256508 253.04193586 39.81609726 242.06300163 C39.77661244 236.96483968 39.74442883 231.86685071 39.72900391 226.76855469 C39.71384402 221.84705204 39.67941016 216.92602492 39.63169098 212.00473404 C39.61687032 210.1285427 39.60895859 208.25228347 39.60811615 206.37603378 C39.60574679 203.74480425 39.57867044 201.11488924 39.54589844 198.48388672 C39.5509288 197.7106456 39.55595917 196.93740448 39.56114197 196.14073181 C39.46147546 190.95818156 38.29125681 187.98408608 35 184 C31.45952316 181.61223655 28.46478944 180.83954691 24.29296875 180.42578125 C23.08483521 180.3026355 23.08483521 180.3026355 21.85229492 180.17700195 C21.2410376 180.11859131 20.62978027 180.06018066 20 180 C19.99453156 178.32869522 19.99453156 178.32869522 19.98895264 176.62362671 C19.95199481 166.11799398 19.89421335 155.61265416 19.81609726 145.10724449 C19.77660559 139.70641243 19.7444253 134.30574384 19.72900391 128.90478516 C19.71384861 123.69152167 19.67942271 118.47870752 19.63169098 113.26564407 C19.61686562 111.27780693 19.60895832 109.28990564 19.60811615 107.3020134 C19.60574824 104.51514659 19.57868277 101.72952331 19.54589844 98.94287109 C19.5509288 98.12287628 19.55595917 97.30288147 19.56114197 96.45803833 C19.46549264 91.19514434 18.48695579 88.17410381 15 84 C9.8247846 80.50973845 6.74938443 80.7499316 0 80 C0 53.6 0 27.2 0 0 Z " fill="#60B4F9" transform="translate(391,62)"/>
<path d="M0 0 C0.94402176 -0.00861557 1.88804352 -0.01723114 2.860672 -0.02610779 C5.96607262 -0.0487197 9.07056727 -0.04203735 12.17602539 -0.03295898 C14.34404263 -0.03819678 16.51205759 -0.04447384 18.68006897 -0.05174255 C23.21846254 -0.06213807 27.7565424 -0.05759746 32.29492188 -0.04296875 C38.09997341 -0.02578532 43.90403473 -0.04927598 49.70897579 -0.08445835 C54.18468233 -0.10645887 58.66015293 -0.10498432 63.13589668 -0.09669304 C65.27564136 -0.09587493 67.4154036 -0.10271142 69.55509758 -0.11746407 C72.55166686 -0.13495792 75.54646929 -0.12032643 78.54296875 -0.09765625 C79.85788803 -0.11519455 79.85788803 -0.11519455 81.19937134 -0.13308716 C87.37653405 -0.03839475 91.55365123 1.5805198 96.33618164 5.53344727 C98.26660156 8.05371094 98.26660156 8.05371094 99.56665039 10.70141602 C100.0597168 11.67788086 100.5527832 12.6543457 101.06079102 13.66040039 C101.78492188 15.17537109 101.78492188 15.17537109 102.52368164 16.72094727 C103.01803711 17.7115918 103.51239258 18.70223633 104.02172852 19.72290039 C105.00085503 21.69018356 105.96966941 23.66263693 106.92749023 25.64038086 C108.71413038 29.30965049 110.57658066 32.9386369 112.44677734 36.56591797 C113.33618164 38.53344727 113.33618164 38.53344727 113.33618164 40.53344727 C114.91265819 40.5292992 114.91265819 40.5292992 116.52098274 40.52506733 C142.08441992 40.45849202 167.64784586 40.40918107 193.21135139 40.37801075 C205.57363082 40.36253667 217.93585301 40.34143676 230.2980957 40.30712891 C241.07202914 40.27724319 251.84592113 40.2578762 262.61989486 40.25118178 C268.32552781 40.24726814 274.03104215 40.23805916 279.73663712 40.2162571 C285.1062155 40.19590511 290.47562635 40.18961091 295.84523964 40.19412422 C297.8164988 40.19329845 299.78776352 40.1873252 301.75898933 40.17583084 C304.45021951 40.16090697 307.14081697 40.16449332 309.83206177 40.17268372 C311.0023128 40.15957593 311.0023128 40.15957593 312.19620526 40.14620334 C316.99252797 40.18566265 320.26740274 40.98350221 324.33618164 43.53344727 C328.95548733 48.65213735 329.48036294 51.84739917 329.44970703 58.56323242 C329.44985306 59.39257797 329.44999908 60.22192352 329.45014954 61.07640076 C329.44945135 63.82513012 329.44166335 66.5737922 329.43383789 69.32250977 C329.43197338 71.22537194 329.43054963 73.12823459 329.42955017 75.03109741 C329.42572763 80.04526082 329.41589957 85.05939537 329.40484619 90.07354736 C329.39462643 95.18778086 329.39005134 100.30201901 329.38500977 105.41625977 C329.37427709 115.45533496 329.3572038 125.49438872 329.33618164 135.53344727 C328.73872572 135.53491383 328.1412698 135.53638039 327.52570915 135.53789139 C312.97778581 135.57496828 298.43006555 135.63399463 283.88233757 135.71735001 C276.84709168 135.75713301 269.81195752 135.78952916 262.77661133 135.80444336 C255.98781659 135.81885575 249.19938069 135.85397533 242.4107399 135.90175629 C239.82001886 135.91660003 237.22924838 135.92448999 234.63848495 135.92533112 C231.01113663 135.92769338 227.38475103 135.9547159 223.75756836 135.98754883 C222.68510361 135.98251846 221.61263885 135.9774881 220.50767517 135.9723053 C214.47179529 136.05689855 210.9416956 136.51797766 206.33618164 140.53344727 C201.54554482 146.13951163 198.48836318 154.22908418 195.33618164 160.53344727 C168.27618164 160.53344727 141.21618164 160.53344727 113.33618164 160.53344727 C110.03618164 154.26344727 106.73618164 147.99344727 103.33618164 141.53344727 C97.92047835 137.00461215 97.92047835 137.00461215 91.65390015 136.37522888 C90.66669479 136.36544006 89.67948944 136.35565125 88.66236877 136.3455658 C87.57552292 136.33981033 86.48867706 136.33405487 85.36889648 136.328125 C84.22743668 136.3182254 83.08597687 136.30832581 81.90992737 136.29812622 C78.122346 136.26644061 74.33475208 136.24172588 70.54711914 136.21704102 C67.92680528 136.19647759 65.30649479 136.17548128 62.68618774 136.15406799 C56.48494397 136.10412372 50.28367434 136.05919135 44.08237994 136.01604563 C37.02318685 135.96668805 29.96404054 135.91176445 22.90489268 135.85636604 C8.38203328 135.74251939 -6.14087267 135.63568619 -20.66381836 135.53344727 C-20.75734638 119.48678936 -20.82783889 103.44022015 -20.87106705 87.39335537 C-20.89167402 79.94215713 -20.91975866 72.49112845 -20.96557617 65.04003906 C-21.0055014 58.54407592 -21.03126474 52.04823561 -21.04017234 45.55215317 C-21.04537756 42.11389809 -21.05757203 38.67599434 -21.08673859 35.2378521 C-21.11906855 31.3954813 -21.11977412 27.55345118 -21.11791992 23.7109375 C-21.13949158 22.00945053 -21.13949158 22.00945053 -21.16149902 20.27359009 C-21.12780676 13.82161452 -20.77492761 9.63395265 -16.66381836 4.53344727 C-11.18955661 0.35005529 -6.75151603 -0.05014536 0 0 Z " fill="#FED673" transform="translate(101.663818359375,201.466552734375)"/>
<path d="M0 0 C1.47893486 -0.01029488 1.47893486 -0.01029488 2.98774719 -0.02079773 C6.24336187 -0.03908255 9.49849543 -0.03522571 12.75415039 -0.02954102 C15.01949724 -0.03410201 17.28484271 -0.03940733 19.55018616 -0.04542542 C24.29718651 -0.05435985 29.04401865 -0.05192951 33.79101562 -0.04199219 C39.87194057 -0.03050244 45.95228485 -0.05071291 52.03313351 -0.07990932 C56.71118351 -0.09826213 61.38909413 -0.09798065 66.0671711 -0.0922718 C68.30904518 -0.09211848 70.55092864 -0.09817221 72.79276848 -0.11056328 C75.92862164 -0.12545354 79.06339907 -0.11480987 82.19921875 -0.09765625 C83.1235672 -0.10732422 84.04791565 -0.11699219 85.00027466 -0.12695312 C90.54603343 -0.06348296 93.78342407 0.66825467 98.16430664 4.40405273 C99.85180664 6.77905273 99.85180664 6.77905273 101.16430664 9.40405273 C101.65930664 10.3747168 102.15430664 11.34538086 102.66430664 12.34545898 C103.15930664 13.35479492 103.65430664 14.36413086 104.16430664 15.40405273 C104.65930664 16.38245117 105.15430664 17.36084961 105.66430664 18.36889648 C107.18017856 21.37300723 108.67192514 24.38819845 110.16430664 27.40405273 C111.1987941 29.4754318 112.23401167 31.54644632 113.26977539 33.6171875 C113.81142334 34.70016617 114.35307129 35.78314484 114.91113281 36.89894104 C115.32468018 37.7256279 115.73822754 38.55231476 116.16430664 39.40405273 C116.80814615 39.40551929 117.45198566 39.40698586 118.11533546 39.40849686 C133.78987595 39.44556747 149.4641575 39.5045853 165.13851357 39.58795547 C172.71856664 39.62774507 180.2985159 39.6601379 187.87866211 39.67504883 C194.48643486 39.68806584 201.09397921 39.71503148 207.70162332 39.7586658 C211.19956293 39.78127988 214.69722083 39.79696347 218.19524002 39.79593658 C222.10264462 39.7950511 226.00947426 39.82531052 229.91674805 39.8581543 C231.65168015 39.85060875 231.65168015 39.85060875 233.42166138 39.84291077 C239.44786053 39.92138223 243.56237544 40.07505407 248.16430664 44.40405273 C251.86662881 48.75995355 251.57375477 53.06461516 251.50488281 58.50878906 C251.50524442 59.431225 251.50560602 60.35366095 251.50597858 61.30404949 C251.50374443 64.28161725 251.48092163 67.25861738 251.45727539 70.23608398 C251.452863 72.07767465 251.44980341 73.91926907 251.44812012 75.76086426 C251.43240934 82.57948456 251.39052557 89.39802426 251.35180664 96.21655273 C251.28993164 111.45842773 251.22805664 126.70030273 251.16430664 142.40405273 C199.68430664 142.40405273 148.20430664 142.40405273 95.16430664 142.40405273 C89.88430664 131.84405273 84.60430664 121.28405273 79.16430664 110.40405273 C72.7423654 103.98211149 70.354835 103.10848739 61.5402832 103.08520508 C60.67163132 103.07515945 59.80297943 103.06511383 58.90800476 103.05476379 C56.04032037 103.02390331 53.17272948 103.00688865 50.30493164 102.98999023 C48.31523838 102.9712809 46.32555308 102.95170766 44.33587646 102.93130493 C39.10150845 102.87995302 33.86711469 102.8403436 28.63262939 102.80316162 C23.29025898 102.76314121 17.94799589 102.7120399 12.60571289 102.66186523 C2.1253195 102.56506969 -8.35513444 102.48067645 -18.83569336 102.40405273 C-18.92840561 90.38204935 -18.99946482 78.36013113 -19.04294205 66.33784294 C-19.0638098 60.75529216 -19.09211305 55.17298611 -19.13745117 49.59057617 C-19.18093724 44.20244061 -19.20483658 38.81454034 -19.21520233 33.42624283 C-19.22258869 31.37134218 -19.23701255 29.31645429 -19.25861359 27.2616539 C-19.28768392 24.3815918 -19.2916478 21.50249985 -19.28979492 18.62231445 C-19.30417603 17.77426743 -19.31855713 16.9262204 -19.33337402 16.05247498 C-19.29621237 10.70824063 -18.48454578 7.57566715 -14.83569336 3.40405273 C-10.37933812 -0.45641064 -5.6061565 -0.02724275 0 0 Z " fill="#676767" transform="translate(139.835693359375,-0.404052734375)"/>
<path d="M0 0 C9.94125 -0.0825 19.8825 -0.165 30.125 -0.25 C33.25500488 -0.28641602 36.38500977 -0.32283203 39.60986328 -0.36035156 C42.09667271 -0.37203636 44.58348979 -0.38222868 47.0703125 -0.390625 C48.35671631 -0.41108887 49.64312012 -0.43155273 50.96850586 -0.45263672 C62.48674641 -0.45713515 62.48674641 -0.45713515 67 4 C70.34166716 8.47529502 70.91000096 12.93056998 71.69702148 18.31616211 C71.84835352 19.28926645 71.99968555 20.2623708 72.15560341 21.26496315 C72.67509521 24.62177568 73.17901534 27.98075933 73.68359375 31.33984375 C74.06496397 33.82323905 74.44745078 36.30646307 74.83091736 38.78953552 C75.59593817 43.74888409 76.35650613 48.70888862 77.11299354 53.66954595 C78.93021563 65.58311323 80.7821974 77.4911921 82.63720703 89.39892578 C85.72468262 109.22511091 88.7987182 129.05334291 91.86397743 148.88297462 C92.21716822 151.16767169 92.57037043 153.452367 92.92358398 155.73706055 C93.09898032 156.87157823 93.27437665 158.00609591 93.45508802 159.17499292 C94.89827135 168.50695593 96.34681277 177.83808245 97.79620272 187.16908318 C99.21034059 196.2753664 100.61988661 205.38235322 102.02601141 214.48987716 C102.85900571 219.88438983 103.69399253 225.27857566 104.53401375 230.67199898 C105.31665694 235.6975889 106.09361523 240.72402473 106.86619568 245.75117111 C107.14951114 247.58811441 107.43488175 249.42474213 107.7224865 251.26101875 C108.11515069 253.77011518 108.50031709 256.28025518 108.88368225 258.79078674 C109.05540273 259.87063232 109.05540273 259.87063232 109.23059231 260.97229296 C109.95631319 265.79654081 110 270.01418037 110 275 C86.9 275 63.8 275 40 275 C39.97421875 268.93367188 39.9484375 262.86734375 39.921875 256.6171875 C39.89670425 252.77079122 39.87036963 248.9244734 39.83984375 245.078125 C39.79151763 238.97493199 39.74746968 232.8719206 39.72900391 226.76855469 C39.71384402 221.84705204 39.67941016 216.92602492 39.63169098 212.00473404 C39.61687032 210.1285427 39.60895859 208.25228347 39.60811615 206.37603378 C39.60574679 203.74480425 39.57867044 201.11488924 39.54589844 198.48388672 C39.5509288 197.7106456 39.55595917 196.93740448 39.56114197 196.14073181 C39.46147546 190.95818156 38.29125681 187.98408608 35 184 C31.45952316 181.61223655 28.46478944 180.83954691 24.29296875 180.42578125 C23.08483521 180.3026355 23.08483521 180.3026355 21.85229492 180.17700195 C21.2410376 180.11859131 20.62978027 180.06018066 20 180 C19.99635437 178.88579681 19.99270874 177.77159363 19.98895264 176.62362671 C19.95199481 166.11799398 19.89421335 155.61265416 19.81609726 145.10724449 C19.77660559 139.70641243 19.7444253 134.30574384 19.72900391 128.90478516 C19.71384861 123.69152167 19.67942271 118.47870752 19.63169098 113.26564407 C19.61686562 111.27780693 19.60895832 109.28990564 19.60811615 107.3020134 C19.60574824 104.51514659 19.57868277 101.72952331 19.54589844 98.94287109 C19.5509288 98.12287628 19.55595917 97.30288147 19.56114197 96.45803833 C19.46549264 91.19514434 18.48695579 88.17410381 15 84 C9.8247846 80.50973845 6.74938443 80.7499316 0 80 C0 53.6 0 27.2 0 0 Z " fill="#3C87F5" transform="translate(391,62)"/>
<path d="M0 0 C40.88518916 -0.1209091 40.88518916 -0.1209091 58.00390625 -0.14648438 C69.82897845 -0.1642927 81.65398658 -0.18524019 93.47900391 -0.22631836 C102.09069122 -0.25621969 110.7023266 -0.27557477 119.31406438 -0.28226548 C123.87393775 -0.28617649 128.43366256 -0.29536862 132.99348831 -0.31719017 C137.28621989 -0.33756689 141.57874183 -0.3438314 145.87151718 -0.33932304 C147.44608957 -0.34014771 149.02066905 -0.34610637 150.59519958 -0.35761642 C152.74785558 -0.37257951 154.89972381 -0.36894028 157.05239868 -0.36076355 C158.25626032 -0.36352893 159.46012196 -0.36629431 160.70046425 -0.36914349 C165.71454254 0.19181856 168.94423961 1.83010335 172.3125 5.5625 C175.24105559 9.79263585 175.13641306 13.0157515 175.11352539 18.02978516 C175.11367142 18.85913071 175.11381744 19.68847626 175.1139679 20.54295349 C175.11326971 23.29168285 175.10548171 26.04034494 175.09765625 28.7890625 C175.09579174 30.69192467 175.09436799 32.59478732 175.09336853 34.49765015 C175.08954599 39.51181356 175.07971793 44.52594811 175.06866455 49.5401001 C175.05844479 54.65433359 175.0538697 59.76857174 175.04882812 64.8828125 C175.03809545 74.92188769 175.02102216 84.96094145 175 95 C174.40254408 95.00146656 173.80508816 95.00293312 173.18952751 95.00444412 C158.64160417 95.04152101 144.09388391 95.10054736 129.54615593 95.18390274 C122.51091004 95.22368575 115.47577588 95.25608189 108.44042969 95.27099609 C101.65163495 95.28540849 94.86319905 95.32052806 88.07455826 95.36830902 C85.48383722 95.38315277 82.89306674 95.39104272 80.30230331 95.39188385 C76.67495499 95.39424611 73.04856939 95.42126864 69.42138672 95.45410156 C68.34892197 95.4490712 67.27645721 95.44404083 66.17149353 95.43885803 C60.13561365 95.52345128 56.60551396 95.98453039 52 100 C47.20936318 105.60606437 44.15218154 113.69563691 41 120 C27.47 120 13.94 120 0 120 C0 80.4 0 40.8 0 0 Z " fill="#FEBD2D" transform="translate(256,242)"/>
<path d="M0 0 C1.83155891 0.00022659 1.83155891 0.00022659 3.70011902 0.00045776 C5.67834404 0.01594162 5.67834404 0.01594162 7.6965332 0.03173828 C9.05987847 0.03546917 10.42322641 0.03831578 11.78657532 0.04031372 C15.372156 0.04794425 18.95757425 0.06758763 22.54309082 0.08972168 C26.20293948 0.11019267 29.86281521 0.11942772 33.52270508 0.12939453 C40.70188492 0.14977256 47.88061891 0.18891991 55.05981445 0.22705078 C55.05981445 13.42705078 55.05981445 26.62705078 55.05981445 40.22705078 C49.11981445 41.21705078 49.11981445 41.21705078 43.05981445 42.22705078 C39.66313378 44.80852809 37.56613499 47.26420718 36.05981445 51.22705078 C35.85020689 54.13233798 35.74864321 56.94482828 35.7409668 59.85107422 C35.73092117 60.7197261 35.72087555 61.58837799 35.71052551 62.48335266 C35.67966502 65.35103705 35.66265037 68.21862795 35.64575195 71.08642578 C35.62704262 73.07611904 35.60746938 75.06580434 35.58706665 77.05548096 C35.53571474 82.28984898 35.49610532 87.52424273 35.45892334 92.75872803 C35.41890293 98.10109845 35.36780162 103.44336154 35.31762695 108.78564453 C35.22083141 119.26603792 35.13643817 129.74649187 35.05981445 140.22705078 C34.22981934 140.34387207 33.39982422 140.46069336 32.54467773 140.58105469 C31.45912598 140.74524902 30.37357422 140.90944336 29.25512695 141.07861328 C28.17763184 141.23668457 27.10013672 141.39475586 25.98999023 141.55761719 C22.08472441 142.44982173 20.36762029 143.99612261 18.05981445 147.22705078 C16.16617002 150.39484593 15.80366193 152.7401656 15.78134155 156.41558838 C15.77017807 157.46444214 15.75901459 158.5132959 15.74751282 159.59393311 C15.74535263 160.73904358 15.74319244 161.88415405 15.7409668 163.06396484 C15.73092117 164.2739917 15.72087555 165.48401855 15.71052551 166.73071289 C15.68493731 170.04445733 15.66807997 173.35803064 15.65509748 176.67183399 C15.63946148 180.13655784 15.61267277 183.60119501 15.58706665 187.06585693 C15.54028713 193.62472825 15.50353906 200.18361589 15.47039378 206.74256873 C15.42841618 214.94318498 15.37305063 223.14370377 15.31762695 231.34423828 C15.21882515 245.971789 15.14027945 260.59936218 15.05981445 275.22705078 C-8.04018555 275.22705078 -31.14018555 275.22705078 -54.94018555 275.22705078 C-54.94018555 266.22701208 -54.94018555 266.22701208 -54.33669472 262.31102657 C-54.20207569 261.418116 -54.06745666 260.52520542 -53.92875826 259.60523695 C-53.77837552 258.6489046 -53.62799278 257.69257225 -53.47305298 256.70726013 C-53.23628186 255.15470735 -53.23628186 255.15470735 -52.99472749 253.57078987 C-52.46615125 250.11472969 -51.9290028 246.66005835 -51.3918457 243.20532227 C-51.01035515 240.72299814 -50.62938166 238.24059451 -50.24888611 235.75811768 C-49.32239681 229.72289574 -48.39030341 223.68856254 -47.45551039 217.65462189 C-46.36643959 210.62350498 -45.28343616 203.59145759 -44.20058231 196.55938102 C-42.26794601 184.01039955 -40.32928409 171.46235626 -38.38745117 158.91479492 C-36.5043853 146.74696334 -34.62638265 134.57836367 -32.75366211 122.40893555 C-30.71285716 109.1472922 -28.66920555 95.88609339 -26.62064779 82.62564522 C-26.40210969 81.21100741 -26.18357319 79.79636934 -25.9650383 78.38173103 C-25.85751942 77.68575602 -25.75000055 76.98978101 -25.63922352 76.27271585 C-24.88268956 71.37445193 -24.12812694 66.47588668 -23.37428665 61.57720757 C-22.35920486 54.98147147 -21.33925557 48.38650532 -20.31605721 41.79202271 C-19.9412201 39.37152424 -19.56791022 36.95078871 -19.19623756 34.52980232 C-18.68874531 31.22582745 -18.17572359 27.92275721 -17.6612854 24.61985779 C-17.5153641 23.66129472 -17.3694428 22.70273165 -17.21909964 21.71512121 C-14.96618553 7.37119711 -14.96618553 7.37119711 -8.94018555 2.22705078 C-5.45355831 -0.09736737 -4.11440632 -0.01696662 0 0 Z " fill="#4699F9" transform="translate(65.940185546875,61.77294921875)"/>
<path d="M0 0 C35.86970045 -0.1209091 35.86970045 -0.1209091 50.89453125 -0.14648438 C61.27104131 -0.16428904 71.64747832 -0.18522623 82.02392578 -0.22631836 C89.58085891 -0.25623055 97.1377328 -0.27557734 104.69472349 -0.28226548 C108.69569251 -0.28617467 112.69649208 -0.29535505 116.69740677 -0.31719017 C120.46484952 -0.33758413 124.23205334 -0.34382797 127.99954605 -0.33932304 C129.38061319 -0.34014695 130.76168849 -0.34609542 132.14270782 -0.35761642 C134.03230474 -0.37260418 135.92203047 -0.36715176 137.81167603 -0.36076355 C138.86805079 -0.36352893 139.92442554 -0.36629431 141.01281166 -0.36914349 C145.8463534 0.22816416 149.06764605 1.96685103 152.3125 5.5625 C155.32086194 9.90791169 155.13568964 13.33930104 155.11352539 18.48876953 C155.11364593 19.38110731 155.11376646 20.27344509 155.11389065 21.19282341 C155.11314256 24.08951155 155.10551901 26.98613583 155.09765625 29.8828125 C155.09618651 31.66788705 155.095166 33.45296204 155.09460449 35.23803711 C155.08935532 41.8670313 155.07539419 48.49601627 155.0625 55.125 C155.041875 69.93375 155.02125 84.7425 155 100 C103.85 100 52.7 100 0 100 C0 67 0 34 0 0 Z " fill="#FE4641" transform="translate(256,142)"/>
<path d="M0 0 C31.24733401 -0.16065467 31.24733401 -0.16065467 46.67618752 -0.20101547 C55.02233601 -0.22318556 63.36832469 -0.25133672 71.71435547 -0.30175781 C78.32201035 -0.34165774 84.92954467 -0.36744039 91.53731668 -0.37635398 C95.03534075 -0.38156347 98.53301996 -0.39378531 102.03093338 -0.42292023 C105.93816791 -0.45519976 109.84506668 -0.45595737 113.75244141 -0.45410156 C114.90906281 -0.46848267 116.0656842 -0.48286377 117.25735474 -0.49768066 C123.29494733 -0.46660833 127.39091248 -0.34664858 132 4 C135.70232217 8.35590082 135.40944813 12.66056243 135.34057617 18.10473633 C135.34093778 19.02717227 135.34129938 19.94960821 135.34167194 20.89999676 C135.33943779 23.87756452 135.31661499 26.85456464 135.29296875 29.83203125 C135.28855636 31.67362192 135.28549677 33.51521634 135.28381348 35.35681152 C135.2681027 42.17543183 135.22621893 48.99397153 135.1875 55.8125 C135.125625 71.054375 135.06375 86.29625 135 102 C90.45 102 45.9 102 0 102 C0 68.34 0 34.68 0 0 Z " fill="#505050" transform="translate(256,40)"/>
<path d="M0 0 C1.04477005 -0.00540298 2.0895401 -0.01080597 3.16596985 -0.01637268 C6.60564854 -0.02883917 10.04448693 -0.01238307 13.48413086 0.00561523 C15.88113957 0.00546021 18.27814852 0.00397068 20.67515564 0.00120544 C25.69272984 -0.00017759 30.71001785 0.01236488 35.72753906 0.03515625 C42.155845 0.06355549 48.58367609 0.0607979 55.01201725 0.04806614 C59.95942738 0.0411086 64.90672793 0.04889895 69.85412407 0.06132317 C72.22437558 0.06583582 74.59463886 0.0661761 76.96489143 0.06225777 C80.2776206 0.05934452 83.58969709 0.07585842 86.90234375 0.09765625 C88.36830994 0.09090378 88.36830994 0.09090378 89.8638916 0.08401489 C95.11945498 0.14141559 98.8589187 0.52810411 103.38647461 3.50170898 C107.62108929 8.19411984 108.6906052 11.00466889 108.60131836 17.18530273 C108.16567088 21.88237469 106.28340671 24.67204679 102.88647461 27.81420898 C99.50439853 30.09711034 96.96436439 30.62725994 92.97944641 30.65560913 C91.62750938 30.66850983 91.62750938 30.66850983 90.2482605 30.68167114 C89.26173492 30.68593109 88.27520935 30.69019104 87.25878906 30.69458008 C86.2178157 30.70275757 85.17684235 30.71093506 84.10432434 30.71936035 C80.65280737 30.74421082 77.20133154 30.76073028 73.74975586 30.77514648 C71.9815854 30.783132 71.9815854 30.783132 70.17769432 30.79127884 C63.93747991 30.81800992 57.6972855 30.83738431 51.45703125 30.85180664 C45.01526667 30.86844705 38.57401442 30.91322067 32.13244343 30.96417809 C27.17640096 30.99785434 22.22048 31.00938459 17.26433372 31.01503372 C14.89010901 31.0217459 12.51589227 31.03696693 10.14177895 31.06092453 C6.81447388 31.09258305 3.48854929 31.09261101 0.16113281 31.08520508 C-1.30347382 31.10981308 -1.30347382 31.10981308 -2.79766846 31.13491821 C-9.17739549 31.07694335 -13.77929997 29.83079272 -18.61352539 25.50170898 C-21.39889762 20.80139335 -22.29143225 16.92496385 -21.61352539 11.50170898 C-19.85636633 6.53355094 -17.43779385 3.96140085 -12.76945686 1.36675835 C-8.63646213 -0.29157101 -4.3957433 -0.04357479 0 0 Z " fill="#D6D6D7" transform="translate(212.613525390625,421.498291015625)"/>
<path d="M0 0 C1.78302269 0.00848969 1.78302269 0.00848969 3.60206604 0.01715088 C7.38226332 0.03946274 11.16149755 0.08965237 14.94140625 0.140625 C17.51105398 0.16069658 20.08071663 0.17894619 22.65039062 0.1953125 C28.9355614 0.23590127 35.21866144 0.31420865 41.50390625 0.390625 C41.50390625 10.290625 41.50390625 20.190625 41.50390625 30.390625 C33.95900027 30.50563881 26.41715564 30.6051189 18.87207031 30.6652832 C16.30751214 30.69037198 13.74302508 30.72445086 11.17871094 30.76782227 C7.48484718 30.828718 3.79193174 30.85689264 0.09765625 30.87890625 C-1.61218445 30.91761589 -1.61218445 30.91761589 -3.35656738 30.95710754 C-10.22114251 30.95950681 -15.34137146 30.21467074 -20.49609375 25.390625 C-23.28146598 20.69030937 -24.17400061 16.81387987 -23.49609375 11.390625 C-21.769433 6.50869728 -19.36567448 3.80433131 -14.77134705 1.24882507 C-10.03959021 -0.53594064 -4.98835412 -0.08993915 0 0 Z " fill="#ECECED" transform="translate(214.49609375,421.609375)"/>
</svg>
